PathFileType	4	(X/Y/Z)	T1_P2_Vision_NoMovement_4_0-734.trc
DataRate	CameraRate	NumFrames	NumMarkers	Units	OrigDataRate	OrigDataStartFrame	OrigNumFrames
60	60	5	27	m	60	642	734
Frame#	Time	RHip			RKnee			RAnkle			RBigToe			RSmallToe			RHeel			LHip			LKnee			LAnkle			LBigToe			LSmallToe			LHeel			Neck			Head			Nose			RShoulder			RElbow			RWrist			RThumb			RIndex			RPinky			LShoulder			LElbow			LWrist			LThumb			LIndex			LPinky		
		X1	Y1	Z1	X2	Y2	Z2	X3	Y3	Z3	X4	Y4	Z4	X5	Y5	Z5	X6	Y6	Z6	X7	Y7	Z7	X8	Y8	Z8	X9	Y9	Z9	X10	Y10	Z10	X11	Y11	Z11	X12	Y12	Z12	X13	Y13	Z13	X14	Y14	Z14	X15	Y15	Z15	X16	Y16	Z16	X17	Y17	Z17	X18	Y18	Z18	X19	Y19	Z19	X20	Y20	Z20	X21	Y21	Z21	X22	Y22	Z22	X23	Y23	Z23	X24	Y24	Z24	X25	Y25	Z25	X26	Y26	Z26	X27	Y27	Z27
643	10.716666666666667	456.9177771431066	3630.8023862321215	618.7283469882201	840.4312503708359	3682.0749836276054	639.6605453142116	1221.0365166423494	3735.480407606056	686.6301018827149	1282.0600676791119	3618.548411597741	642.0532924532862	1281.7670741206493	3664.01167759143	598.2894115400376	1287.9185993948088	3802.807508726502	743.0727006015388	475.1168205223337	3593.450450708138	834.340967433953	843.6311835678722	3573.4799595272652	830.6889246471201	1231.7569679664696	3672.080025824607	850.3939249588664	1300.813068311517	3530.004247191626	792.2498692453077	1280.8083581766246	3530.746549610734	839.536295977342	1273.292687977764	3734.2845822568997	865.9302630759037	-120.11791993228309	3631.533414785266	731.4832938524318	-380.53163408650687	3540.4294862860543	660.1135721476354	-236.5236152562733	3507.7933732356187	664.5687905960684	-32.08735567703519	3694.131798776263	592.9155615044097	205.18812831729528	3674.317505461297	521.9362568424486	359.1661579602086	3543.0448893268403	618.9640516960802	405.43952811772317	3416.1253736853787	623.8529683397616	435.9353186788679	3461.347956083854	680.8813331960961	461.0870216478161	3466.9528555629417	672.9953628817992	-30.96396671071573	3552.9309173720526	874.3959675351475	229.6526129325495	3483.947352238511	893.1434834440823	368.2064762446475	3406.558636717979	710.7596283847618	401.6713276267406	3419.1911522641562	605.0362446571746	433.2333318931752	3411.4776174977947	598.664331926678	471.80233849462456	3449.691904447924	677.3652827337494
644	10.733333333333333	458.21306222219835	3637.402647897078	622.217234458002	846.4006570761703	3684.7320246621225	641.2948068997755	1220.9830490334216	3735.803610462871	686.8221840637738	1282.4600531071071	3620.0237781757146	642.728459146235	1289.0018047145522	3684.818160330903	603.6724185220927	1287.7164920917924	3802.765569758595	743.1485417821029	478.3839790601513	3614.951217120607	841.348427335285	848.9982078971641	3575.1962777035606	832.1235960392972	1233.7481702300681	3679.8162771348266	855.5255702350247	1308.7261471693816	3551.3640354233994	799.3245424662509	1275.95384856345	3525.081287272109	825.7938541987633	1266.0878223763186	3729.4648948437066	864.3445990413056	-120.04868222531141	3631.3897216955047	731.3500085412593	-380.57543774030216	3540.415343880875	660.0955205903593	-236.50840367191404	3507.857406952249	664.6306915311261	-32.09948350469531	3694.13452468005	592.9168295750254	209.055550580624	3670.2536421551827	519.9353068061156	359.1586371552331	3543.1518922665737	618.9967866378398	405.291612766902	3416.6626187276197	624.3706797579293	436.0113693344609	3461.359500131658	681.0092372972421	457.9035614980448	3447.3863193840657	661.6330476875232	-30.977293477519538	3552.548004621952	874.2343602982097	229.70766849152398	3483.7215830705495	893.0048541489367	368.2007670270367	3406.5116771401104	710.7562360201507	401.61750513483196	3419.1704245097258	605.1046928087197	433.295238666809	3411.696737037233	598.7610713665902	471.6357459521516	3450.345477187935	677.5968592409181
645	10.75	461.24048324506896	3658.5743094244895	627.8312388043805	845.9142317453786	3681.492457831916	645.6486614967292	1214.484844121715	3729.594632343905	691.1706914686102	1289.719602837522	3635.68657757631	655.5468893650398	1288.6343443410526	3685.05046339725	604.009796752672	1289.5424941039246	3816.26661746062	756.7508687850652	478.2771660603676	3615.167133950736	841.5439932548757	852.4336566135006	3589.8986886637736	834.8316545232093	1233.5893199570262	3679.8642853532324	855.7147220142444	1308.8409781389246	3551.635469234982	799.5557497987442	1283.1372153034706	3537.4796947503164	844.2508237837247	1266.0382705020743	3729.5380922646477	864.5204079438627	-120.01524655956055	3631.424302521217	731.3611300035756	-381.6258154572162	3555.633605792979	673.4268412590451	-236.55012819163454	3509.940875507891	660.5406791261854	-28.05020074276819	3674.1817559105907	588.1273301847682	209.02948047635692	3670.157001810337	519.9158305868142	358.97836606516853	3543.3913849457226	618.8691950934797	404.86349912903063	3416.5238989808863	624.171356583778	432.6679316356527	3464.450081112068	682.6925339355754	457.62359975763655	3447.3742216530823	661.5453708777843	-30.967747519434315	3552.4181560536276	874.2869662821462	229.84544377680328	3483.7352289356927	893.0405018821773	368.05886923415716	3406.3082153925884	710.6855264109086	401.4832794063763	3419.1429939137965	605.0405761199165	433.0138009644255	3412.7351874805654	594.087045973761	468.26122220949753	3448.611786813977	676.412082567066
646	10.766666666666667	462.04922539003763	3632.091806215748	619.6092673266818	839.9144626646294	3676.633564908557	644.2840144128395	1214.2789652143854	3731.3375275207363	685.7927604682595	1281.886819703235	3618.913122516346	642.0630406914339	1288.8828078154932	3684.991701001979	603.9367373296178	1290.0683556222593	3816.7870720982023	757.0025865766394	475.1042852244555	3593.380958753051	834.161110756605	846.9568385314519	3567.916117216609	827.6801074962989	1236.6697023850988	3673.838139494643	852.129476143888	1308.823837459147	3551.389331543421	799.3867785896642	1278.8986107188157	3518.3170554515177	827.9691331078025	1266.2039709255425	3729.3322926859687	864.342320157873	-119.99421127323694	3629.249869449646	735.9255793513254	-381.5884663886685	3555.5638715529562	673.4129122808042	-236.58099082671174	3509.833919038633	660.5055882345666	-28.878764670244024	3657.031185789879	574.3012291846811	209.05153957866267	3670.149522947632	519.8486144582208	356.7718795600439	3523.4114619994048	613.4325598787419	405.4117769695024	3416.4721983700138	624.2917375385091	436.16254105162267	3461.1838080816615	680.9685368155261	458.3093615783399	3446.7844011481275	666.8633559079788	-30.991184457762685	3552.046932722792	874.2497394249182	230.09403480352012	3483.73687254728	893.0303810844681	372.48991851516297	3409.8454278876866	712.0739498708714	401.5406752717217	3419.152176003576	604.9548537301312	433.17090019845205	3412.5099171868787	593.7171537177246	471.6806724497198	3449.977829563131	677.2660663592959
647	10.783333333333333	467.1480829272873	3636.1010888358796	620.947132556803	846.2304059004604	3681.0891358498734	645.5299855784226	1214.4981957950781	3729.3597902209117	691.0524443239659	1281.9556648270616	3619.682250029238	642.26255301468	1288.7200016204124	3685.2102359397186	604.1547780683861	1289.9216410406991	3816.486115443533	756.8966251558312	475.09601684324826	3593.7403566471785	834.5501781793397	852.6064808863734	3570.0807107089254	829.3433685019148	1236.5536239275402	3673.8826483519265	852.1380226455642	1308.689312162764	3551.3389316427165	799.1834086659932	1276.2468902369003	3523.3535509027647	830.7181002354254	1266.0135964842298	3729.430964936214	864.3210848030723	-119.85232602635541	3610.402207120134	725.1873570672652	-381.5862168897097	3555.5453511818596	673.4122315218742	-236.59087461248146	3507.781561930798	664.5633164440358	-33.130315319333256	3655.792809502781	573.8020398737086	209.03362260288	3670.0646016644923	519.9043644403586	356.79528585187364	3523.0987591861376	613.1968080505156	405.08045645622775	3414.229482792792	627.4714989652493	432.9585349715719	3444.4446495071215	670.4613560353155	458.2994168707109	3446.1039341049063	666.6087840788197	-30.877147093450613	3552.2070584192807	874.364842987254	230.12095394128568	3483.7492367688574	893.0681426900265	369.9282735163687	3390.871649431227	706.1552869254633	401.53446212593593	3418.751546628816	604.8618347490917	433.05107102265333	3410.97298548805	598.4450532799838	471.5740448626265	3449.2659982079003	676.8075661548462
